{"url":"https://api.github.com/repos/k4yt3x/video2x/issues/744","repository_url":"https://api.github.com/repos/k4yt3x/video2x","labels_url":"https://api.github.com/repos/k4yt3x/video2x/issues/744/labels{/name}","comments_url":"https://api.github.com/repos/k4yt3x/video2x/issues/744/comments","events_url":"https://api.github.com/repos/k4yt3x/video2x/issues/744/events","html_url":"https://github.com/k4yt3x/video2x/issues/744","id":1410308049,"node_id":"I_kwDOB1EkMc5UD5fR","number":744,"title":"Command '['C:\\\\Users\\\\DJBie\\\\Desktop\\\\video2x-4.8.1-win32-full\\\\dependencies\\\\ffmpeg\\\\bin\\\\ffmpeg', '-hwaccel', 'auto', '-y', '-i', 'D:\\\\Ripped Movies\\\\NINJAGO.mkv', '-pix_fmt', 'rgb24', 'C:\\\\Users\\\\DJBie\\\\AppData\\\\Local\\\\Temp\\\\video2x\\\\tmphux65sx6\\\\extracted_%0d.png']' returned non-zero exit status 1.","user":{"login":"dbiery1","id":108839197,"node_id":"U_kgDOBnzBHQ","avatar_url":"https://avatars.githubusercontent.com/u/108839197?v=4","gravatar_id":"","url":"https://api.github.com/users/dbiery1","html_url":"https://github.com/dbiery1","followers_url":"https://api.github.com/users/dbiery1/followers","following_url":"https://api.github.com/users/dbiery1/following{/other_user}","gists_url":"https://api.github.com/users/dbiery1/gists{/gist_id}","starred_url":"https://api.github.com/users/dbiery1/starred{/owner}{/repo}","subscriptions_url":"https://api.github.com/users/dbiery1/subscriptions","organizations_url":"https://api.github.com/users/dbiery1/orgs","repos_url":"https://api.github.com/users/dbiery1/repos","events_url":"https://api.github.com/users/dbiery1/events{/privacy}","received_events_url":"https://api.github.com/users/dbiery1/received_events","type":"User","site_admin":false},"labels":[],"state":"open","locked":false,"assignee":null,"assignees":[],"milestone":null,"comments":0,"created_at":"2022-10-15T22:33:04Z","updated_at":"2022-10-15T22:34:06Z","closed_at":null,"author_association":"NONE","active_lock_reason":null,"body":"whats going on?\r\n\r\nfull log\r\n\r\n\u001B[32m[+] INFO: Loading files into processing queue\u001B[0m\r\n\u001B[90m2022-10-15 18:17:28.524272 [+] INFO: Input path(s): D:\\Ripped Movies\\NINJAGO.mkv\u001B[0m\r\n\u001B[90m2022-10-15 18:17:28.525772 [+] INFO: File MIME type: video/x-matroska\u001B[0m\r\n\u001B[32m[+] INFO: Loaded files into processing queue\u001B[0m\r\n\u001B[90m2022-10-15 18:17:28.528272 [+] INFO: Input file: D:\\Ripped Movies\\NINJAGO.mkv\u001B[0m\r\n\u001B[32m[+] INFO: Reading file information\u001B[0m\r\n\u001B[90m2022-10-15 18:17:28.528772 [+] INFO: Executing: C:\\Users\\DJBie\\Desktop\\video2x-4.8.1-win32-full\\dependencies\\ffmpeg\\bin\\ffprobe -v quiet -print_format json -show_format -show_streams -i D:\\Ripped Movies\\NINJAGO.mkv\u001B[0m\r\n\u001B[90m2022-10-15 18:17:28.767273 [+] INFO: Creating cache directory C:\\Users\\DJBie\\AppData\\Local\\Temp\\video2x\u001B[0m\r\n\u001B[90m2022-10-15 18:17:28.767772 [+] INFO: Extracted frames are being saved to: C:\\Users\\DJBie\\AppData\\Local\\Temp\\video2x\\tmplb4ktahx\u001B[0m\r\n\u001B[90m2022-10-15 18:17:28.768272 [+] INFO: Upscaled frames are being saved to: C:\\Users\\DJBie\\AppData\\Local\\Temp\\video2x\\tmpgtsigntj\u001B[0m\r\n\u001B[32m[+] INFO: Starting upscaling video/GIF\u001B[0m\r\n\u001B[32m[+] INFO: Getting total number of frames in the file\u001B[0m\r\n\u001B[90m2022-10-15 18:17:28.768772 [+] INFO: Executing: C:\\Users\\DJBie\\Desktop\\video2x-4.8.1-win32-full\\dependencies\\ffmpeg\\bin\\ffprobe -v quiet -count_frames -select_streams v:0 -show_entries stream=nb_read_frames -of default=nokey=1:noprint_wrappers=1 D:\\Ripped Movies\\NINJAGO.mkv\u001B[0m\r\n\u001B[32m[+] INFO: Calculating scaling parameters\u001B[0m\r\n\u001B[90m2022-10-15 18:18:14.855776 [+] INFO: Framerate: 29.97002997002997\u001B[0m\r\n\u001B[90m2022-10-15 18:18:14.856275 [+] INFO: Width: 720\u001B[0m\r\n\u001B[90m2022-10-15 18:18:14.856275 [+] INFO: Height: 480\u001B[0m\r\n\u001B[90m2022-10-15 18:18:14.856773 [+] INFO: Total number of frames: 72382\u001B[0m\r\n\u001B[90m2022-10-15 18:18:14.857273 [+] INFO: Output width: 2880\u001B[0m\r\n\u001B[90m2022-10-15 18:18:14.857774 [+] INFO: Output height: 1920\u001B[0m\r\n\u001B[90m2022-10-15 18:18:14.857774 [+] INFO: Required scale ratio: 4.0\u001B[0m\r\n\u001B[90m2022-10-15 18:18:14.858272 [+] INFO: Upscaling jobs queue: [2, 2]\u001B[0m\r\n\u001B[90m2022-10-15 18:18:14.858272 [+] INFO: Executing: C:\\Users\\DJBie\\Desktop\\video2x-4.8.1-win32-full\\dependencies\\ffmpeg\\bin\\ffmpeg -hwaccel auto -y -i D:\\Ripped Movies\\NINJAGO.mkv -pix_fmt rgb24 C:\\Users\\DJBie\\AppData\\Local\\Temp\\video2x\\tmplb4ktahx\\extracted_%0d.png\u001B[0m\r\n\u001B[90m2022-10-15 18:18:15.046274 [+] INFO: Main process waiting for subprocesses to exit\u001B[0m\r\nffmpeg version 4.3.1-2020-11-19-full_build-www.gyan.dev Copyright (c) 2000-2020 the FFmpeg developers\r\n  built with gcc 10.2.0 (Rev5, Built by MSYS2 project)\r\n  configuration: --enable-gpl --enable-version3 --enable-static --disable-w32threads --disable-autodetect --enable-fontconfig --enable-iconv --enable-gnutls --enable-libxml2 --enable-gmp --enable-lzma --enable-libsnappy --enable-zlib --enable-libsrt --enable-libssh --enable-libzmq --enable-avisynth --enable-libbluray --enable-libcaca --enable-sdl2 --enable-libdav1d --enable-libzvbi --enable-librav1e --enable-libwebp --enable-libx264 --enable-libx265 --enable-libxvid --enable-libaom --enable-libopenjpeg --enable-libvpx --enable-libass --enable-frei0r --enable-libfreetype --enable-libfribidi --enable-libvidstab --enable-libvmaf --enable-libzimg --enable-amf --enable-cuda-llvm --enable-cuvid --enable-ffnvcodec --enable-nvdec --enable-nvenc --enable-d3d11va --enable-dxva2 --enable-libmfx --enable-libcdio --enable-libgme --enable-libmodplug --enable-libopenmpt --enable-libopencore-amrwb --enable-libmp3lame --enable-libshine --enable-libtheora --enable-libtwolame --enable-libvo-amrwbenc --enable-libilbc --enable-libgsm --enable-libopencore-amrnb --enable-libopus --enable-libspeex --enable-libvorbis --enable-ladspa --enable-libbs2b --enable-libflite --enable-libmysofa --enable-librubberband --enable-libsoxr --enable-chromaprint\r\n  libavutil      56. 51.100 / 56. 51.100\r\n  libavcodec     58. 91.100 / 58. 91.100\r\n  libavformat    58. 45.100 / 58. 45.100\r\n  libavdevice    58. 10.100 / 58. 10.100\r\n  libavfilter     7. 85.100 /  7. 85.100\r\n  libswscale      5.  7.100 /  5.  7.100\r\n  libswresample   3.  7.100 /  3.  7.100\r\n  libpostproc    55.  7.100 / 55.  7.100\r\nInput #0, matroska,webm, from 'D:\\Ripped Movies\\NINJAGO.mkv':\r\n  Metadata:\r\n    encoder         : libmakemkv v1.17.2 (1.3.10/1.5.2) win(x64-release)\r\n    creation_time   : 2022-10-15T21:54:44.000000Z\r\n  Duration: 00:44:06.98, start: 0.000000, bitrate: 5882 kb/s\r\n    Chapter #0:0: start 0.000000, end 9.342667\r\n    Metadata:\r\n      title           : Chapter 01\r\n    Chapter #0:1: start 9.342667, end 542.775567\r\n    Metadata:\r\n      title           : Chapter 02\r\n    Chapter #0:2: start 542.775567, end 851.884367\r\n    Metadata:\r\n      title           : Chapter 03\r\n    Chapter #0:3: start 851.884367, end 1296.428467\r\n    Metadata:\r\n      title           : Chapter 04\r\n    Chapter #0:4: start 1296.428467, end 1323.488833\r\n    Metadata:\r\n      title           : Chapter 05\r\n    Chapter #0:5: start 1323.488833, end 1335.000333\r\n    Metadata:\r\n      title           : Chapter 06\r\n    Chapter #0:6: start 1335.000333, end 1812.043567\r\n    Metadata:\r\n      title           : Chapter 07\r\n    Chapter #0:7: start 1812.043567, end 2245.977067\r\n    Metadata:\r\n      title           : Chapter 08\r\n    Chapter #0:8: start 2245.977067, end 2623.921300\r\n    Metadata:\r\n      title           : Chapter 09\r\n    Chapter #0:9: start 2623.921300, end 2646.477167\r\n    Metadata:\r\n      title           : Chapter 10\r\n    Chapter #0:10: start 2646.477167, end 2646.977667\r\n    Metadata:\r\n      title           : Chapter 11\r\n    Stream #0:0(eng): Video: mpeg2video (Main), yuv420p(tv, progressive), 720x480 [SAR 32:27 DAR 16:9], SAR 186:157 DAR 279:157, 29.97 fps, 29.97 tbr, 1k tbn, 59.94 tbc\r\n    Metadata:\r\n      BPS-eng         : 5489281\r\n      DURATION-eng    : 00:44:06.977666666\r\n      NUMBER_OF_FRAMES-eng: 72382\r\n      NUMBER_OF_BYTES-eng: 1816250360\r\n      SOURCE_ID-eng   : 0100E0\r\n      _STATISTICS_WRITING_APP-eng: MakeMKV v1.17.2 win(x64-release)\r\n      _STATISTICS_WRITING_DATE_UTC-eng: 2022-10-15 21:54:44\r\n      _STATISTICS_TAGS-eng: BPS DURATION NUMBER_OF_FRAMES NUMBER_OF_BYTES SOURCE_ID\r\n    Side data:\r\n      cpb: bitrate max/min/avg: 7500000/0/0 buffer size: 1835008 vbv_delay: N/A\r\n    Stream #0:1(eng): Audio: ac3, 48000 Hz, stereo, fltp, 192 kb/s (default)\r\n    Metadata:\r\n      title           : Stereo\r\n      BPS-eng         : 192000\r\n      DURATION-eng    : 00:44:06.976000000\r\n      NUMBER_OF_FRAMES-eng: 82718\r\n      NUMBER_OF_BYTES-eng: 63527424\r\n      SOURCE_ID-eng   : 0180BD\r\n      _STATISTICS_WRITING_APP-eng: MakeMKV v1.17.2 win(x64-release)\r\n      _STATISTICS_WRITING_DATE_UTC-eng: 2022-10-15 21:54:44\r\n      _STATISTICS_TAGS-eng: BPS DURATION NUMBER_OF_FRAMES NUMBER_OF_BYTES SOURCE_ID\r\n    Stream #0:2(fre): Audio: ac3, 48000 Hz, stereo, fltp, 192 kb/s\r\n    Metadata:\r\n      title           : Stereo\r\n      BPS-eng         : 192000\r\n      DURATION-eng    : 00:44:06.976000000\r\n      NUMBER_OF_FRAMES-eng: 82718\r\n      NUMBER_OF_BYTES-eng: 63527424\r\n      SOURCE_ID-eng   : 0181BD\r\n      _STATISTICS_WRITING_APP-eng: MakeMKV v1.17.2 win(x64-release)\r\n      _STATISTICS_WRITING_DATE_UTC-eng: 2022-10-15 21:54:44\r\n      _STATISTICS_TAGS-eng: BPS DURATION NUMBER_OF_FRAMES NUMBER_OF_BYTES SOURCE_ID\r\n    Stream #0:3(eng): Subtitle: dvd_subtitle, 720x480 (default)\r\n    Metadata:\r\n      BPS-eng         : 3236\r\n      DURATION-eng    : 00:43:46.346177777\r\n      NUMBER_OF_FRAMES-eng: 707\r\n      NUMBER_OF_BYTES-eng: 1062568\r\n      SOURCE_ID-eng   : 0120BD\r\n      _STATISTICS_WRITING_APP-eng: MakeMKV v1.17.2 win(x64-release)\r\n      _STATISTICS_WRITING_DATE_UTC-eng: 2022-10-15 21:54:44\r\n      _STATISTICS_TAGS-eng: BPS DURATION NUMBER_OF_FRAMES NUMBER_OF_BYTES SOURCE_ID\r\n[mpeg2video @ 000001ce37509680] Using auto hwaccel type dxva2 with new default device.\r\nStream mapping:\r\n  Stream #0:0 -> #0:0 (mpeg2video (native) -> png (native))\r\nPress [q] to stop, [?] for help\r\n[mpeg2video @ 000001ce37509680] Failed setup for format dxva2_vld: hwaccel initialisation returned error.\r\nOutput #0, image2, to 'C:\\Users\\DJBie\\AppData\\Local\\Temp\\video2x\\tmplb4ktahx\\extracted_%0d.png':\r\n  Metadata:\r\n    encoder         : Lavf58.45.100\r\n    Chapter #0:0: start 0.000000, end 9.342667\r\n    Metadata:\r\n      title           : Chapter 01\r\n    Chapter #0:1: start 9.342667, end 542.775567\r\n    Metadata:\r\n      title           : Chapter 02\r\n    Chapter #0:2: start 542.775567, end 851.884367\r\n    Metadata:\r\n      title           : Chapter 03\r\n    Chapter #0:3: start 851.884367, end 1296.428467\r\n    Metadata:\r\n      title           : Chapter 04\r\n    Chapter #0:4: start 1296.428467, end 1323.488833\r\n    Metadata:\r\n      title           : Chapter 05\r\n    Chapter #0:5: start 1323.488833, end 1335.000333\r\n    Metadata:\r\n      title           : Chapter 06\r\n    Chapter #0:6: start 1335.000333, end 1812.043567\r\n    Metadata:\r\n      title           : Chapter 07\r\n    Chapter #0:7: start 1812.043567, end 2245.977067\r\n    Metadata:\r\n      title           : Chapter 08\r\n    Chapter #0:8: start 2245.977067, end 2623.921300\r\n    Metadata:\r\n      title           : Chapter 09\r\n    Chapter #0:9: start 2623.921300, end 2646.477167\r\n    Metadata:\r\n      title           : Chapter 10\r\n    Chapter #0:10: start 2646.477167, end 2646.977667\r\n    Metadata:\r\n      title           : Chapter 11\r\n    Stream #0:0(eng): Video: png, rgb24, 720x480 [SAR 186:157 DAR 279:157], q=2-31, 200 kb/s, 29.97 fps, 29.97 tbn, 29.97 tbc\r\n    Metadata:\r\n      BPS-eng         : 5489281\r\n      DURATION-eng    : 00:44:06.977666666\r\n      NUMBER_OF_FRAMES-eng: 72382\r\n      NUMBER_OF_BYTES-eng: 1816250360\r\n      SOURCE_ID-eng   : 0100E0\r\n      _STATISTICS_WRITING_APP-eng: MakeMKV v1.17.2 win(x64-release)\r\n      _STATISTICS_WRITING_DATE_UTC-eng: 2022-10-15 21:54:44\r\n      _STATISTICS_TAGS-eng: BPS DURATION NUMBER_OF_FRAMES NUMBER_OF_BYTES SOURCE_ID\r\n      encoder         : Lavc58.91.100 png\r\nframe=  119 fps=0.0 q=-0.0 size=N/A time=00:00:03.70 bitrate=N/A dup=22 drop=0 speed=7.35x    \r\nframe=  188 fps=186 q=-0.0 size=N/A time=00:00:06.00 bitrate=N/A dup=31 drop=0 speed=5.96x    \r\nframe=  258 fps=169 q=-0.0 size=N/A time=00:00:08.34 bitrate=N/A dup=45 drop=0 speed=5.48x    \r\nframe=  330 fps=161 q=-0.0 size=N/A time=00:00:10.74 bitrate=N/A dup=58 drop=0 speed=5.25x    \r\nframe=  408 fps=160 q=-0.0 size=N/A time=00:00:13.34 bitrate=N/A dup=64 drop=0 speed=5.24x    \r\nframe=  485 fps=159 q=-0.0 size=N/A time=00:00:15.91 bitrate=N/A dup=69 drop=0 speed=5.22x    \r\nframe=  554 fps=156 q=-0.0 size=N/A time=00:00:18.21 bitrate=N/A dup=77 drop=0 speed=5.12x    \r\nframe=  622 fps=153 q=-0.0 size=N/A time=00:00:20.48 bitrate=N/A dup=90 drop=0 speed=5.05x    \r\nframe=  691 fps=151 q=-0.0 size=N/A time=00:00:22.78 bitrate=N/A dup=104 drop=0 speed=   5x    \r\nframe=  760 fps=150 q=-0.0 size=N/A time=00:00:25.09 bitrate=N/A dup=116 drop=0 speed=4.96x    \r\nframe=  835 fps=150 q=-0.0 size=N/A time=00:00:27.59 bitrate=N/A dup=128 drop=0 speed=4.95x    \r\nframe=  909 fps=150 q=-0.0 size=N/A time=00:00:30.06 bitrate=N/A dup=136 drop=0 speed=4.95x    \r\nframe=  982 fps=149 q=-0.0 size=N/A time=00:00:32.49 bitrate=N/A dup=149 drop=0 speed=4.94x    \r\nframe= 1052 fps=149 q=-0.0 size=N/A time=00:00:34.83 bitrate=N/A dup=156 drop=0 speed=4.92x    \r\nframe= 1126 fps=148 q=-0.0 size=N/A time=00:00:37.30 bitrate=N/A dup=164 drop=0 speed=4.92x    \r\nframe= 1194 fps=148 q=-0.0 size=N/A time=00:00:39.57 bitrate=N/A dup=169 drop=0 speed=4.89x    \r\nframe= 1270 fps=148 q=-0.0 size=N/A time=00:00:42.10 bitrate=N/A dup=175 drop=0 speed= 4.9x    \r\nframe= 1345 fps=148 q=-0.0 size=N/A time=00:00:44.61 bitrate=N/A dup=184 drop=0 speed= 4.9x    \r\nframe= 1418 fps=147 q=-0.0 size=N/A time=00:00:47.04 bitrate=N/A dup=193 drop=0 speed=4.89x    \r\nframe= 1483 fps=147 q=-0.0 size=N/A time=00:00:49.21 bitrate=N/A dup=202 drop=0 speed=4.86x    \r\nframe= 1546 fps=145 q=-0.0 size=N/A time=00:00:51.31 bitrate=N/A dup=212 drop=0 speed=4.83x    \r\nframe= 1609 fps=145 q=-0.0 size=N/A time=00:00:53.42 bitrate=N/A dup=224 drop=0 speed= 4.8x    \r\nframe= 1680 fps=144 q=-0.0 size=N/A time=00:00:55.78 bitrate=N/A dup=226 drop=0 speed=4.79x    \r\nframe= 1750 fps=144 q=-0.0 size=N/A time=00:00:58.12 bitrate=N/A dup=227 drop=0 speed=4.78x    \r\nframe= 1814 fps=143 q=-0.0 size=N/A time=00:01:00.26 bitrate=N/A dup=232 drop=0 speed=4.76x    \r\nframe= 1878 fps=143 q=-0.0 size=N/A time=00:01:02.39 bitrate=N/A dup=238 drop=0 speed=4.74x    \r\nframe= 1951 fps=143 q=-0.0 size=N/A time=00:01:04.83 bitrate=N/A dup=243 drop=0 speed=4.74x    \r\nframe= 2022 fps=143 q=-0.0 size=N/A time=00:01:07.20 bitrate=N/A dup=243 drop=0 speed=4.74x    \r\nframe= 2089 fps=142 q=-0.0 size=N/A time=00:01:09.43 bitrate=N/A dup=253 drop=0 speed=4.72x    \r\nframe= 2157 fps=142 q=-0.0 size=N/A time=00:01:11.70 bitrate=N/A dup=262 drop=0 speed=4.71x    \r\nframe= 2232 fps=142 q=-0.0 size=N/A time=00:01:14.20 bitrate=N/A dup=270 drop=0 speed=4.72x    \r\nframe= 2305 fps=142 q=-0.0 size=N/A time=00:01:16.64 bitrate=N/A dup=278 drop=0 speed=4.73x    \r\nframe= 2369 fps=142 q=-0.0 size=N/A time=00:01:18.77 bitrate=N/A dup=282 drop=0 speed=4.71x    \r\nframe= 2447 fps=142 q=-0.0 size=N/A time=00:01:21.38 bitrate=N/A dup=291 drop=0 speed=4.72x    \r\nframe= 2516 fps=142 q=-0.0 size=N/A time=00:01:23.68 bitrate=N/A dup=291 drop=0 speed=4.71x    \r\nframe= 2580 fps=141 q=-0.0 size=N/A time=00:01:25.81 bitrate=N/A dup=295 drop=0 speed=4.69x    \r\nframe= 2653 fps=141 q=-0.0 size=N/A time=00:01:28.25 bitrate=N/A dup=306 drop=0 speed= 4.7x    \r\nframe= 2704 fps=140 q=-0.0 size=N/A time=00:01:29.95 bitrate=N/A dup=314 drop=0 speed=4.66x    \r\nframe= 2750 fps= 89 q=-0.0 size=N/A time=00:01:31.49 bitrate=N/A dup=322 drop=0 speed=2.95x    \r\nframe= 2779 fps= 85 q=-0.0 size=N/A time=00:01:32.45 bitrate=N/A dup=328 drop=0 speed=2.82x    \r\nframe= 2787 fps= 83 q=-0.0 size=N/A time=00:01:32.72 bitrate=N/A dup=330 drop=0 speed=2.77x    \r\nframe= 2798 fps= 82 q=-0.0 size=N/A time=00:01:33.09 bitrate=N/A dup=332 drop=0 speed=2.73x    \r\nframe= 2809 fps= 81 q=-0.0 size=N/A time=00:01:33.46 bitrate=N/A dup=334 drop=0 speed=2.69x    \r\nframe= 2820 fps= 80 q=-0.0 size=N/A time=00:01:33.82 bitrate=N/A dup=336 drop=0 speed=2.65x    \r\nframe= 2831 fps= 79 q=-0.0 size=N/A time=00:01:34.19 bitrate=N/A dup=338 drop=0 speed=2.62x    \r\nframe= 2843 fps= 78 q=-0.0 size=N/A time=00:01:34.59 bitrate=N/A dup=339 drop=0 speed=2.59x    \r\nframe= 2850 fps= 76 q=-0.0 size=N/A time=00:01:34.82 bitrate=N/A dup=339 drop=0 speed=2.54x    \r\nframe= 2860 fps= 75 q=-0.0 size=N/A time=00:01:35.16 bitrate=N/A dup=341 drop=0 speed=2.51x    \r\nframe= 2872 fps= 75 q=-0.0 size=N/A time=00:01:35.56 bitrate=N/A dup=343 drop=0 speed=2.49x    \r\nframe= 2883 fps= 74 q=-0.0 size=N/A time=00:01:35.92 bitrate=N/A dup=346 drop=0 speed=2.45x    \r\nframe= 2891 fps= 73 q=-0.0 size=N/A time=00:01:36.19 bitrate=N/A dup=346 drop=0 speed=2.42x    \r\nframe= 2905 fps= 72 q=-0.0 size=N/A time=00:01:36.66 bitrate=N/A dup=347 drop=0 speed= 2.4x    \r\nframe= 2984 fps= 73 q=-0.0 size=N/A time=00:01:39.29 bitrate=N/A dup=357 drop=0 speed=2.44x    \r\nframe= 3051 fps= 74 q=-0.0 size=N/A time=00:01:41.53 bitrate=N/A dup=369 drop=0 speed=2.46x    \r\nframe= 3123 fps= 75 q=-0.0 size=N/A time=00:01:43.93 bitrate=N/A dup=373 drop=0 speed=2.49x    \r\nframe= 3194 fps= 76 q=-0.0 size=N/A time=00:01:46.30 bitrate=N/A dup=378 drop=0 speed=2.52x    \r\n[image2 @ 000001ce37548580] Could not open file : C:\\Users\\DJBie\\AppData\\Local\\Temp\\video2x\\tmplb4ktahx\\extracted_3189.png\r\nav_interleaved_write_frame(): I/O error\r\nframe= 3197 fps= 76 q=-0.0 Lsize=N/A time=00:01:46.40 bitrate=N/A dup=378 drop=0 speed=2.51x    \r\nvideo:1470179kB audio:0kB subtitle:0kB other streams:0kB global headers:0kB muxing overhead: unknown\r\nConversion failed!\r\n\u001B[31m\u001B[1m[!] ERROR: Subprocess 8620 exited with code 1\u001B[0m\r\n\u001B[31m\u001B[1m[!] ERROR: Subprocess execution ran into an error\u001B[0m\r\n\u001B[33m\u001B[1m[!] WARNING: Terminating all processes\u001B[0m\r\nCleaning up cache directory: C:\\Users\\DJBie\\AppData\\Local\\Temp\\video2x\\tmplb4ktahx\r\nCleaning up cache directory: C:\\Users\\DJBie\\AppData\\Local\\Temp\\video2x\\tmpgtsigntj\r\nCleaning up cache directory: C:\\Users\\DJBie\\AppData\\Local\\Temp\\video2x\r\nTraceback (most recent call last):\r\n  File \"video2x_gui.py\", line 105, in run\r\n  File \"upscaler.py\", line 1022, in run\r\n  File \"upscaler.py\", line 817, in run\r\n  File \"upscaler.py\", line 489, in _wait\r\n  File \"upscaler.py\", line 467, in _wait\r\nsubprocess.CalledProcessError: Command '['C:\\\\Users\\\\DJBie\\\\Desktop\\\\video2x-4.8.1-win32-full\\\\dependencies\\\\ffmpeg\\\\bin\\\\ffmpeg', '-hwaccel', 'auto', '-y', '-i', 'D:\\\\Ripped Movies\\\\NINJAGO.mkv', '-pix_fmt', 'rgb24', 'C:\\\\Users\\\\DJBie\\\\AppData\\\\Local\\\\Temp\\\\video2x\\\\tmplb4ktahx\\\\extracted_%0d.png']' returned non-zero exit status 1.\r\n\u001B[32m[+] INFO: Loading files into processing queue\u001B[0m\r\n\u001B[90m2022-10-15 18:19:28.560880 [+] INFO: Input path(s): D:\\Ripped Movies\\NINJAGO.mkv\u001B[0m\r\n\u001B[90m2022-10-15 18:19:28.562883 [+] INFO: File MIME type: video/x-matroska\u001B[0m\r\n\u001B[32m[+] INFO: Loaded files into processing queue\u001B[0m\r\n\u001B[90m2022-10-15 18:19:28.564880 [+] INFO: Input file: D:\\Ripped Movies\\NINJAGO.mkv\u001B[0m\r\n\u001B[32m[+] INFO: Reading file information\u001B[0m\r\n\u001B[90m2022-10-15 18:19:28.565881 [+] INFO: Executing: C:\\Users\\DJBie\\Desktop\\video2x-4.8.1-win32-full\\dependencies\\ffmpeg\\bin\\ffprobe -v quiet -print_format json -show_format -show_streams -i D:\\Ripped Movies\\NINJAGO.mkv\u001B[0m\r\n\u001B[90m2022-10-15 18:19:28.615879 [+] INFO: Creating cache directory C:\\Users\\DJBie\\AppData\\Local\\Temp\\video2x\u001B[0m\r\n\u001B[90m2022-10-15 18:19:28.616894 [+] INFO: Extracted frames are being saved to: C:\\Users\\DJBie\\AppData\\Local\\Temp\\video2x\\tmpw9w5e2a4\u001B[0m\r\n\u001B[90m2022-10-15 18:19:28.618880 [+] INFO: Upscaled frames are being saved to: C:\\Users\\DJBie\\AppData\\Local\\Temp\\video2x\\tmpsin58n5t\u001B[0m\r\n\u001B[32m[+] INFO: Starting upscaling video/GIF\u001B[0m\r\n\u001B[32m[+] INFO: Getting total number of frames in the file\u001B[0m\r\n\u001B[90m2022-10-15 18:19:28.620379 [+] INFO: Executing: C:\\Users\\DJBie\\Desktop\\video2x-4.8.1-win32-full\\dependencies\\ffmpeg\\bin\\ffprobe -v quiet -count_frames -select_streams v:0 -show_entries stream=nb_read_frames -of default=nokey=1:noprint_wrappers=1 D:\\Ripped Movies\\NINJAGO.mkv\u001B[0m\r\n\u001B[32m[+] INFO: Calculating scaling parameters\u001B[0m\r\n\u001B[90m2022-10-15 18:20:14.091379 [+] INFO: Framerate: 29.97002997002997\u001B[0m\r\n\u001B[90m2022-10-15 18:20:14.091379 [+] INFO: Width: 720\u001B[0m\r\n\u001B[90m2022-10-15 18:20:14.091879 [+] INFO: Height: 480\u001B[0m\r\n\u001B[90m2022-10-15 18:20:14.091879 [+] INFO: Total number of frames: 72382\u001B[0m\r\n\u001B[90m2022-10-15 18:20:14.091879 [+] INFO: Output width: 1440\u001B[0m\r\n\u001B[90m2022-10-15 18:20:14.091879 [+] INFO: Output height: 960\u001B[0m\r\n\u001B[90m2022-10-15 18:20:14.092379 [+] INFO: Required scale ratio: 2.0\u001B[0m\r\n\u001B[90m2022-10-15 18:20:14.092379 [+] INFO: Upscaling jobs queue: [2]\u001B[0m\r\n\u001B[90m2022-10-15 18:20:14.092379 [+] INFO: Executing: C:\\Users\\DJBie\\Desktop\\video2x-4.8.1-win32-full\\dependencies\\ffmpeg\\bin\\ffmpeg -hwaccel auto -y -i D:\\Ripped Movies\\NINJAGO.mkv -pix_fmt rgb24 C:\\Users\\DJBie\\AppData\\Local\\Temp\\video2x\\tmpw9w5e2a4\\extracted_%0d.png\u001B[0m\r\n\u001B[90m2022-10-15 18:20:14.096380 [+] INFO: Main process waiting for subprocesses to exit\u001B[0m\r\n\u001B[33m\u001B[1m[!] WARNING: Stop signal received\u001B[0m\r\n\u001B[33m\u001B[1m[!] WARNING: Terminating all processes\u001B[0m\r\nCleaning up cache directory: C:\\Users\\DJBie\\AppData\\Local\\Temp\\video2x\\tmpw9w5e2a4\r\nCleaning up cache directory: C:\\Users\\DJBie\\AppData\\Local\\Temp\\video2x\\tmpsin58n5t\r\nCleaning up cache directory: C:\\Users\\DJBie\\AppData\\Local\\Temp\\video2x\r\n\u001B[32m[+] INFO: Loading files into processing queue\u001B[0m\r\n\u001B[90m2022-10-15 18:20:21.657426 [+] INFO: Input path(s): D:\\Ripped Movies\\NINJAGO.mkv\u001B[0m\r\n\u001B[90m2022-10-15 18:20:21.659429 [+] INFO: File MIME type: video/x-matroska\u001B[0m\r\n\u001B[32m[+] INFO: Loaded files into processing queue\u001B[0m\r\n\u001B[90m2022-10-15 18:20:21.661426 [+] INFO: Input file: D:\\Ripped Movies\\NINJAGO.mkv\u001B[0m\r\n\u001B[32m[+] INFO: Reading file information\u001B[0m\r\n\u001B[90m2022-10-15 18:20:21.661927 [+] INFO: Executing: C:\\Users\\DJBie\\Desktop\\video2x-4.8.1-win32-full\\dependencies\\ffmpeg\\bin\\ffprobe -v quiet -print_format json -show_format -show_streams -i D:\\Ripped Movies\\NINJAGO.mkv\u001B[0m\r\n\u001B[90m2022-10-15 18:20:21.713426 [+] INFO: Creating cache directory C:\\Users\\DJBie\\AppData\\Local\\Temp\\video2x\u001B[0m\r\n\u001B[90m2022-10-15 18:20:21.714427 [+] INFO: Extracted frames are being saved to: C:\\Users\\DJBie\\AppData\\Local\\Temp\\video2x\\tmpswvsnyqx\u001B[0m\r\n\u001B[90m2022-10-15 18:20:21.714927 [+] INFO: Upscaled frames are being saved to: C:\\Users\\DJBie\\AppData\\Local\\Temp\\video2x\\tmp3io_42uq\u001B[0m\r\n\u001B[32m[+] INFO: Starting upscaling video/GIF\u001B[0m\r\n\u001B[32m[+] INFO: Getting total number of frames in the file\u001B[0m\r\n\u001B[90m2022-10-15 18:20:21.717428 [+] INFO: Executing: C:\\Users\\DJBie\\Desktop\\video2x-4.8.1-win32-full\\dependencies\\ffmpeg\\bin\\ffprobe -v quiet -count_frames -select_streams v:0 -show_entries stream=nb_read_frames -of default=nokey=1:noprint_wrappers=1 D:\\Ripped Movies\\NINJAGO.mkv\u001B[0m\r\n\u001B[32m[+] INFO: Calculating scaling parameters\u001B[0m\r\n\u001B[90m2022-10-15 18:21:07.557428 [+] INFO: Framerate: 29.97002997002997\u001B[0m\r\n\u001B[90m2022-10-15 18:21:07.557428 [+] INFO: Width: 720\u001B[0m\r\n\u001B[90m2022-10-15 18:21:07.557927 [+] INFO: Height: 480\u001B[0m\r\n\u001B[90m2022-10-15 18:21:07.558426 [+] INFO: Total number of frames: 72382\u001B[0m\r\n\u001B[90m2022-10-15 18:21:07.558426 [+] INFO: Output width: 1440\u001B[0m\r\n\u001B[90m2022-10-15 18:21:07.558927 [+] INFO: Output height: 960\u001B[0m\r\n\u001B[90m2022-10-15 18:21:07.559426 [+] INFO: Required scale ratio: 2.0\u001B[0m\r\n\u001B[90m2022-10-15 18:21:07.559426 [+] INFO: Upscaling jobs queue: [2]\u001B[0m\r\n\u001B[90m2022-10-15 18:21:07.559927 [+] INFO: Executing: C:\\Users\\DJBie\\Desktop\\video2x-4.8.1-win32-full\\dependencies\\ffmpeg\\bin\\ffmpeg -hwaccel auto -y -i D:\\Ripped Movies\\NINJAGO.mkv -pix_fmt rgb24 C:\\Users\\DJBie\\AppData\\Local\\Temp\\video2x\\tmpswvsnyqx\\extracted_%0d.png\u001B[0m\r\n\u001B[90m2022-10-15 18:21:07.564426 [+] INFO: Main process waiting for subprocesses to exit\u001B[0m\r\n\u001B[33m\u001B[1m[!] WARNING: Stop signal received\u001B[0m\r\n\u001B[33m\u001B[1m[!] WARNING: Terminating all processes\u001B[0m\r\nCleaning up cache directory: C:\\Users\\DJBie\\AppData\\Local\\Temp\\video2x\\tmpswvsnyqx\r\nCleaning up cache directory: C:\\Users\\DJBie\\AppData\\Local\\Temp\\video2x\\tmp3io_42uq\r\nCleaning up cache directory: C:\\Users\\DJBie\\AppData\\Local\\Temp\\video2x\r\n\u001B[32m[+] INFO: Loading files into processing queue\u001B[0m\r\n\u001B[90m2022-10-15 18:21:34.764627 [+] INFO: Input path(s): D:\\Ripped Movies\\NINJAGO.mkv\u001B[0m\r\n\u001B[90m2022-10-15 18:21:34.766626 [+] INFO: File MIME type: video/x-matroska\u001B[0m\r\n\u001B[32m[+] INFO: Loaded files into processing queue\u001B[0m\r\n\u001B[90m2022-10-15 18:21:34.768624 [+] INFO: Input file: D:\\Ripped Movies\\NINJAGO.mkv\u001B[0m\r\n\u001B[32m[+] INFO: Reading file information\u001B[0m\r\n\u001B[90m2022-10-15 18:21:34.769125 [+] INFO: Executing: C:\\Users\\DJBie\\Desktop\\video2x-4.8.1-win32-full\\dependencies\\ffmpeg\\bin\\ffprobe -v quiet -print_format json -show_format -show_streams -i D:\\Ripped Movies\\NINJAGO.mkv\u001B[0m\r\n\u001B[90m2022-10-15 18:21:34.819126 [+] INFO: Creating cache directory C:\\Users\\DJBie\\AppData\\Local\\Temp\\video2x\u001B[0m\r\n\u001B[90m2022-10-15 18:21:34.820626 [+] INFO: Extracted frames are being saved to: C:\\Users\\DJBie\\AppData\\Local\\Temp\\video2x\\tmphux65sx6\u001B[0m\r\n\u001B[90m2022-10-15 18:21:34.822626 [+] INFO: Upscaled frames are being saved to: C:\\Users\\DJBie\\AppData\\Local\\Temp\\video2x\\tmp6t_dpbcm\u001B[0m\r\n\u001B[32m[+] INFO: Starting upscaling video/GIF\u001B[0m\r\n\u001B[32m[+] INFO: Getting total number of frames in the file\u001B[0m\r\n\u001B[90m2022-10-15 18:21:34.825125 [+] INFO: Executing: C:\\Users\\DJBie\\Desktop\\video2x-4.8.1-win32-full\\dependencies\\ffmpeg\\bin\\ffprobe -v quiet -count_frames -select_streams v:0 -show_entries stream=nb_read_frames -of default=nokey=1:noprint_wrappers=1 D:\\Ripped Movies\\NINJAGO.mkv\u001B[0m\r\n\u001B[32m[+] INFO: Calculating scaling parameters\u001B[0m\r\n\u001B[90m2022-10-15 18:22:19.785125 [+] INFO: Framerate: 29.97002997002997\u001B[0m\r\n\u001B[90m2022-10-15 18:22:19.785626 [+] INFO: Width: 720\u001B[0m\r\n\u001B[90m2022-10-15 18:22:19.786125 [+] INFO: Height: 480\u001B[0m\r\n\u001B[90m2022-10-15 18:22:19.786125 [+] INFO: Total number of frames: 72382\u001B[0m\r\n\u001B[90m2022-10-15 18:22:19.786125 [+] INFO: Output width: 1920\u001B[0m\r\n\u001B[90m2022-10-15 18:22:19.786625 [+] INFO: Output height: 1080\u001B[0m\r\n\u001B[90m2022-10-15 18:22:19.786625 [+] INFO: Required scale ratio: 2.6666666666666665\u001B[0m\r\n\u001B[90m2022-10-15 18:22:19.786625 [+] INFO: Upscaling jobs queue: [2, 2]\u001B[0m\r\n\u001B[90m2022-10-15 18:22:19.787125 [+] INFO: Executing: C:\\Users\\DJBie\\Desktop\\video2x-4.8.1-win32-full\\dependencies\\ffmpeg\\bin\\ffmpeg -hwaccel auto -y -i D:\\Ripped Movies\\NINJAGO.mkv -pix_fmt rgb24 C:\\Users\\DJBie\\AppData\\Local\\Temp\\video2x\\tmphux65sx6\\extracted_%0d.png\u001B[0m\r\n\u001B[90m2022-10-15 18:22:19.791127 [+] INFO: Main process waiting for subprocesses to exit\u001B[0m\r\nffmpeg version 4.3.1-2020-11-19-full_build-www.gyan.dev Copyright (c) 2000-2020 the FFmpeg developers\r\n  built with gcc 10.2.0 (Rev5, Built by MSYS2 project)\r\n  configuration: --enable-gpl --enable-version3 --enable-static --disable-w32threads --disable-autodetect --enable-fontconfig --enable-iconv --enable-gnutls --enable-libxml2 --enable-gmp --enable-lzma --enable-libsnappy --enable-zlib --enable-libsrt --enable-libssh --enable-libzmq --enable-avisynth --enable-libbluray --enable-libcaca --enable-sdl2 --enable-libdav1d --enable-libzvbi --enable-librav1e --enable-libwebp --enable-libx264 --enable-libx265 --enable-libxvid --enable-libaom --enable-libopenjpeg --enable-libvpx --enable-libass --enable-frei0r --enable-libfreetype --enable-libfribidi --enable-libvidstab --enable-libvmaf --enable-libzimg --enable-amf --enable-cuda-llvm --enable-cuvid --enable-ffnvcodec --enable-nvdec --enable-nvenc --enable-d3d11va --enable-dxva2 --enable-libmfx --enable-libcdio --enable-libgme --enable-libmodplug --enable-libopenmpt --enable-libopencore-amrwb --enable-libmp3lame --enable-libshine --enable-libtheora --enable-libtwolame --enable-libvo-amrwbenc --enable-libilbc --enable-libgsm --enable-libopencore-amrnb --enable-libopus --enable-libspeex --enable-libvorbis --enable-ladspa --enable-libbs2b --enable-libflite --enable-libmysofa --enable-librubberband --enable-libsoxr --enable-chromaprint\r\n  libavutil      56. 51.100 / 56. 51.100\r\n  libavcodec     58. 91.100 / 58. 91.100\r\n  libavformat    58. 45.100 / 58. 45.100\r\n  libavdevice    58. 10.100 / 58. 10.100\r\n  libavfilter     7. 85.100 /  7. 85.100\r\n  libswscale      5.  7.100 /  5.  7.100\r\n  libswresample   3.  7.100 /  3.  7.100\r\n  libpostproc    55.  7.100 / 55.  7.100\r\nInput #0, matroska,webm, from 'D:\\Ripped Movies\\NINJAGO.mkv':\r\n  Metadata:\r\n    encoder         : libmakemkv v1.17.2 (1.3.10/1.5.2) win(x64-release)\r\n    creation_time   : 2022-10-15T21:54:44.000000Z\r\n  Duration: 00:44:06.98, start: 0.000000, bitrate: 5882 kb/s\r\n    Chapter #0:0: start 0.000000, end 9.342667\r\n    Metadata:\r\n      title           : Chapter 01\r\n    Chapter #0:1: start 9.342667, end 542.775567\r\n    Metadata:\r\n      title           : Chapter 02\r\n    Chapter #0:2: start 542.775567, end 851.884367\r\n    Metadata:\r\n      title           : Chapter 03\r\n    Chapter #0:3: start 851.884367, end 1296.428467\r\n    Metadata:\r\n      title           : Chapter 04\r\n    Chapter #0:4: start 1296.428467, end 1323.488833\r\n    Metadata:\r\n      title           : Chapter 05\r\n    Chapter #0:5: start 1323.488833, end 1335.000333\r\n    Metadata:\r\n      title           : Chapter 06\r\n    Chapter #0:6: start 1335.000333, end 1812.043567\r\n    Metadata:\r\n      title           : Chapter 07\r\n    Chapter #0:7: start 1812.043567, end 2245.977067\r\n    Metadata:\r\n      title           : Chapter 08\r\n    Chapter #0:8: start 2245.977067, end 2623.921300\r\n    Metadata:\r\n      title           : Chapter 09\r\n    Chapter #0:9: start 2623.921300, end 2646.477167\r\n    Metadata:\r\n      title           : Chapter 10\r\n    Chapter #0:10: start 2646.477167, end 2646.977667\r\n    Metadata:\r\n      title           : Chapter 11\r\n    Stream #0:0(eng): Video: mpeg2video (Main), yuv420p(tv, progressive), 720x480 [SAR 32:27 DAR 16:9], SAR 186:157 DAR 279:157, 29.97 fps, 29.97 tbr, 1k tbn, 59.94 tbc\r\n    Metadata:\r\n      BPS-eng         : 5489281\r\n      DURATION-eng    : 00:44:06.977666666\r\n      NUMBER_OF_FRAMES-eng: 72382\r\n      NUMBER_OF_BYTES-eng: 1816250360\r\n      SOURCE_ID-eng   : 0100E0\r\n      _STATISTICS_WRITING_APP-eng: MakeMKV v1.17.2 win(x64-release)\r\n      _STATISTICS_WRITING_DATE_UTC-eng: 2022-10-15 21:54:44\r\n      _STATISTICS_TAGS-eng: BPS DURATION NUMBER_OF_FRAMES NUMBER_OF_BYTES SOURCE_ID\r\n    Side data:\r\n      cpb: bitrate max/min/avg: 7500000/0/0 buffer size: 1835008 vbv_delay: N/A\r\n    Stream #0:1(eng): Audio: ac3, 48000 Hz, stereo, fltp, 192 kb/s (default)\r\n    Metadata:\r\n      title           : Stereo\r\n      BPS-eng         : 192000\r\n      DURATION-eng    : 00:44:06.976000000\r\n      NUMBER_OF_FRAMES-eng: 82718\r\n      NUMBER_OF_BYTES-eng: 63527424\r\n      SOURCE_ID-eng   : 0180BD\r\n      _STATISTICS_WRITING_APP-eng: MakeMKV v1.17.2 win(x64-release)\r\n      _STATISTICS_WRITING_DATE_UTC-eng: 2022-10-15 21:54:44\r\n      _STATISTICS_TAGS-eng: BPS DURATION NUMBER_OF_FRAMES NUMBER_OF_BYTES SOURCE_ID\r\n    Stream #0:2(fre): Audio: ac3, 48000 Hz, stereo, fltp, 192 kb/s\r\n    Metadata:\r\n      title           : Stereo\r\n      BPS-eng         : 192000\r\n      DURATION-eng    : 00:44:06.976000000\r\n      NUMBER_OF_FRAMES-eng: 82718\r\n      NUMBER_OF_BYTES-eng: 63527424\r\n      SOURCE_ID-eng   : 0181BD\r\n      _STATISTICS_WRITING_APP-eng: MakeMKV v1.17.2 win(x64-release)\r\n      _STATISTICS_WRITING_DATE_UTC-eng: 2022-10-15 21:54:44\r\n      _STATISTICS_TAGS-eng: BPS DURATION NUMBER_OF_FRAMES NUMBER_OF_BYTES SOURCE_ID\r\n    Stream #0:3(eng): Subtitle: dvd_subtitle, 720x480 (default)\r\n    Metadata:\r\n      BPS-eng         : 3236\r\n      DURATION-eng    : 00:43:46.346177777\r\n      NUMBER_OF_FRAMES-eng: 707\r\n      NUMBER_OF_BYTES-eng: 1062568\r\n      SOURCE_ID-eng   : 0120BD\r\n      _STATISTICS_WRITING_APP-eng: MakeMKV v1.17.2 win(x64-release)\r\n      _STATISTICS_WRITING_DATE_UTC-eng: 2022-10-15 21:54:44\r\n      _STATISTICS_TAGS-eng: BPS DURATION NUMBER_OF_FRAMES NUMBER_OF_BYTES SOURCE_ID\r\n[mpeg2video @ 000001c040fc9680] Using auto hwaccel type dxva2 with new default device.\r\nStream mapping:\r\n  Stream #0:0 -> #0:0 (mpeg2video (native) -> png (native))\r\nPress [q] to stop, [?] for help\r\n\r\nEnter command: <target>|all <time>|-1 <command>[ <argument>]\r\n\r\nParse error, at least 3 arguments were expected, only 1 given in string 'learcc+'\r\n[mpeg2video @ 000001c040fc9680] Failed setup for format dxva2_vld: hwaccel initialisation returned error.\r\nframe=    0 fps=0.0 q=0.0 size=N/A time=-577014:32:22.77 bitrate=N/A speed=N/A    \r\nOutput #0, image2, to 'C:\\Users\\DJBie\\AppData\\Local\\Temp\\video2x\\tmphux65sx6\\extracted_%0d.png':\r\n  Metadata:\r\n    encoder         : Lavf58.45.100\r\n    Chapter #0:0: start 0.000000, end 9.342667\r\n    Metadata:\r\n      title           : Chapter 01\r\n    Chapter #0:1: start 9.342667, end 542.775567\r\n    Metadata:\r\n      title           : Chapter 02\r\n    Chapter #0:2: start 542.775567, end 851.884367\r\n    Metadata:\r\n      title           : Chapter 03\r\n    Chapter #0:3: start 851.884367, end 1296.428467\r\n    Metadata:\r\n      title           : Chapter 04\r\n    Chapter #0:4: start 1296.428467, end 1323.488833\r\n    Metadata:\r\n      title           : Chapter 05\r\n    Chapter #0:5: start 1323.488833, end 1335.000333\r\n    Metadata:\r\n      title           : Chapter 06\r\n    Chapter #0:6: start 1335.000333, end 1812.043567\r\n    Metadata:\r\n      title           : Chapter 07\r\n    Chapter #0:7: start 1812.043567, end 2245.977067\r\n    Metadata:\r\n      title           : Chapter 08\r\n    Chapter #0:8: start 2245.977067, end 2623.921300\r\n    Metadata:\r\n      title           : Chapter 09\r\n    Chapter #0:9: start 2623.921300, end 2646.477167\r\n    Metadata:\r\n      title           : Chapter 10\r\n    Chapter #0:10: start 2646.477167, end 2646.977667\r\n    Metadata:\r\n      title           : Chapter 11\r\n    Stream #0:0(eng): Video: png, rgb24, 720x480 [SAR 186:157 DAR 279:157], q=2-31, 200 kb/s, 29.97 fps, 29.97 tbn, 29.97 tbc\r\n    Metadata:\r\n      BPS-eng         : 5489281\r\n      DURATION-eng    : 00:44:06.977666666\r\n      NUMBER_OF_FRAMES-eng: 72382\r\n      NUMBER_OF_BYTES-eng: 1816250360\r\n      SOURCE_ID-eng   : 0100E0\r\n      _STATISTICS_WRITING_APP-eng: MakeMKV v1.17.2 win(x64-release)\r\n      _STATISTICS_WRITING_DATE_UTC-eng: 2022-10-15 21:54:44\r\n      _STATISTICS_TAGS-eng: BPS DURATION NUMBER_OF_FRAMES NUMBER_OF_BYTES SOURCE_ID\r\n      encoder         : Lavc58.91.100 png\r\nframe=  124 fps=0.2 q=-0.0 size=N/A time=00:00:03.87 bitrate=N/A dup=22 drop=0 speed=0.00668x    \r\nframe=  194 fps=0.3 q=-0.0 size=N/A time=00:00:06.20 bitrate=N/A dup=32 drop=0 speed=0.0107x    \r\nframe=  267 fps=0.5 q=-0.0 size=N/A time=00:00:08.64 bitrate=N/A dup=47 drop=0 speed=0.0149x    \r\nframe=  324 fps=0.6 q=-0.0 size=N/A time=00:00:10.54 bitrate=N/A dup=57 drop=0 speed=0.0181x    \r\nframe=  394 fps=0.7 q=-0.0 size=N/A time=00:00:12.87 bitrate=N/A dup=64 drop=0 speed=0.0221x    \r\nframe=  454 fps=0.8 q=-0.0 size=N/A time=00:00:14.88 bitrate=N/A dup=64 drop=0 speed=0.0256x    \r\nframe=  515 fps=0.9 q=-0.0 size=N/A time=00:00:16.91 bitrate=N/A dup=70 drop=0 speed=0.029x    \r\nframe=  584 fps=1.0 q=-0.0 size=N/A time=00:00:19.21 bitrate=N/A dup=82 drop=0 speed=0.033x    \r\nframe=  641 fps=1.1 q=-0.0 size=N/A time=00:00:21.12 bitrate=N/A dup=94 drop=0 speed=0.0362x    \r\nframe=  702 fps=1.2 q=-0.0 size=N/A time=00:00:23.15 bitrate=N/A dup=106 drop=0 speed=0.0396x    \r\nframe=  777 fps=1.3 q=-0.0 size=N/A time=00:00:25.65 bitrate=N/A dup=117 drop=0 speed=0.0439x    \r\nframe=  848 fps=1.4 q=-0.0 size=N/A time=00:00:28.02 bitrate=N/A dup=131 drop=0 speed=0.0479x    \r\nframe=  919 fps=1.6 q=-0.0 size=N/A time=00:00:30.39 bitrate=N/A dup=137 drop=0 speed=0.0519x    \r\nframe=  990 fps=1.7 q=-0.0 size=N/A time=00:00:32.76 bitrate=N/A dup=150 drop=0 speed=0.0559x    \r\nframe= 1058 fps=1.8 q=-0.0 size=N/A time=00:00:35.03 bitrate=N/A dup=156 drop=0 speed=0.0597x    \r\nframe= 1123 fps=1.9 q=-0.0 size=N/A time=00:00:37.20 bitrate=N/A dup=164 drop=0 speed=0.0634x    \r\nframe= 1195 fps=2.0 q=-0.0 size=N/A time=00:00:39.60 bitrate=N/A dup=169 drop=0 speed=0.0674x    \r\nframe= 1268 fps=2.2 q=-0.0 size=N/A time=00:00:42.04 bitrate=N/A dup=175 drop=0 speed=0.0715x    \r\nframe= 1349 fps=2.3 q=-0.0 size=N/A time=00:00:44.74 bitrate=N/A dup=185 drop=0 speed=0.076x    \r\nframe= 1421 fps=2.4 q=-0.0 size=N/A time=00:00:47.14 bitrate=N/A dup=193 drop=0 speed=0.08x    \r\nframe= 1491 fps=2.5 q=-0.0 size=N/A time=00:00:49.48 bitrate=N/A dup=204 drop=0 speed=0.0839x    \r\nframe= 1563 fps=2.6 q=-0.0 size=N/A time=00:00:51.88 bitrate=N/A dup=216 drop=0 speed=0.0879x    \r\nframe= 1634 fps=2.8 q=-0.0 size=N/A time=00:00:54.25 bitrate=N/A dup=224 drop=0 speed=0.0918x    \r\nframe= 1708 fps=2.9 q=-0.0 size=N/A time=00:00:56.72 bitrate=N/A dup=227 drop=0 speed=0.0959x    \r\nframe= 1785 fps=3.0 q=-0.0 size=N/A time=00:00:59.29 bitrate=N/A dup=228 drop=0 speed= 0.1x    \r\nframe= 1846 fps=3.1 q=-0.0 size=N/A time=00:01:01.32 bitrate=N/A dup=235 drop=0 speed=0.104x    \r\nframe= 1921 fps=3.2 q=-0.0 size=N/A time=00:01:03.83 bitrate=N/A dup=242 drop=0 speed=0.108x    \r\nframe= 1995 fps=3.4 q=-0.0 size=N/A time=00:01:06.29 bitrate=N/A dup=243 drop=0 speed=0.112x    \r\nframe= 2065 fps=3.5 q=-0.0 size=N/A time=00:01:08.63 bitrate=N/A dup=248 drop=0 speed=0.116x    \r\nframe= 2144 fps=3.6 q=-0.0 size=N/A time=00:01:11.27 bitrate=N/A dup=261 drop=0 speed=0.12x    \r\nframe= 2218 fps=3.7 q=-0.0 size=N/A time=00:01:13.74 bitrate=N/A dup=270 drop=0 speed=0.124x    \r\nframe= 2294 fps=3.9 q=-0.0 size=N/A time=00:01:16.27 bitrate=N/A dup=276 drop=0 speed=0.128x    \r\nframe= 2368 fps=4.0 q=-0.0 size=N/A time=00:01:18.74 bitrate=N/A dup=282 drop=0 speed=0.132x    \r\nframe= 2442 fps=4.1 q=-0.0 size=N/A time=00:01:21.21 bitrate=N/A dup=291 drop=0 speed=0.136x    \r\nframe= 2517 fps=4.2 q=-0.0 size=N/A time=00:01:23.71 bitrate=N/A dup=291 drop=0 speed=0.14x    \r\nframe= 2580 fps=4.3 q=-0.0 size=N/A time=00:01:25.81 bitrate=N/A dup=295 drop=0 speed=0.142x    \r\nframe= 2621 fps=4.3 q=-0.0 size=N/A time=00:01:27.18 bitrate=N/A dup=301 drop=0 speed=0.144x    \r\nframe= 2691 fps=4.4 q=-0.0 size=N/A time=00:01:29.52 bitrate=N/A dup=312 drop=0 speed=0.148x    \r\nframe= 2762 fps=4.6 q=-0.0 size=N/A time=00:01:31.89 bitrate=N/A dup=325 drop=0 speed=0.152x    \r\nframe= 2819 fps=4.6 q=-0.0 size=N/A time=00:01:33.79 bitrate=N/A dup=336 drop=0 speed=0.155x    \r\nframe= 2890 fps=4.8 q=-0.0 size=N/A time=00:01:36.16 bitrate=N/A dup=346 drop=0 speed=0.158x    \r\nframe= 2958 fps=4.9 q=-0.0 size=N/A time=00:01:38.43 bitrate=N/A dup=355 drop=0 speed=0.162x    \r\nframe= 3018 fps=5.0 q=-0.0 size=N/A time=00:01:40.43 bitrate=N/A dup=363 drop=0 speed=0.165x    \r\nframe= 3065 fps=5.0 q=-0.0 size=N/A time=00:01:42.00 bitrate=N/A dup=372 drop=0 speed=0.167x    \r\nframe= 3136 fps=5.1 q=-0.0 size=N/A time=00:01:44.37 bitrate=N/A dup=376 drop=0 speed=0.171x    \r\nframe= 3194 fps=5.2 q=-0.0 size=N/A time=00:01:46.30 bitrate=N/A dup=378 drop=0 speed=0.174x    \r\nframe= 3279 fps=5.4 q=-0.0 size=N/A time=00:01:49.14 bitrate=N/A dup=385 drop=0 speed=0.179x    \r\nframe= 3364 fps=5.5 q=-0.0 size=N/A time=00:01:51.97 bitrate=N/A dup=391 drop=0 speed=0.183x    \r\nframe= 3449 fps=5.6 q=-0.0 size=N/A time=00:01:54.81 bitrate=N/A dup=404 drop=0 speed=0.188x    \r\nframe= 3528 fps=5.8 q=-0.0 size=N/A time=00:01:57.45 bitrate=N/A dup=413 drop=0 speed=0.192x    \r\nframe= 3612 fps=5.9 q=-0.0 size=N/A time=00:02:00.25 bitrate=N/A dup=428 drop=0 speed=0.196x    \r\nframe= 3698 fps=6.0 q=-0.0 size=N/A time=00:02:03.12 bitrate=N/A dup=434 drop=0 speed=0.201x    \r\nframe= 3779 fps=6.2 q=-0.0 size=N/A time=00:02:05.82 bitrate=N/A dup=441 drop=0 speed=0.205x    \r\nframe= 3828 fps=6.2 q=-0.0 size=N/A time=00:02:07.46 bitrate=N/A dup=442 drop=0 speed=0.207x    \r\n[image2 @ 000001c041008580] Could not open file : C:\\Users\\DJBie\\AppData\\Local\\Temp\\video2x\\tmphux65sx6\\extracted_3838.png\r\nav_interleaved_write_frame(): I/O error\r\n[image2 @ 000001c041008580] Could not open file : C:\\Users\\DJBie\\AppData\\Local\\Temp\\video2x\\tmphux65sx6\\extracted_3838.png\r\nav_interleaved_write_frame(): I/O error\r\nframe= 3847 fps=6.3 q=-0.0 Lsize=N/A time=00:02:08.09 bitrate=N/A dup=444 drop=0 speed=0.208x    \r\nvideo:1791772kB audio:0kB subtitle:0kB other streams:0kB global headers:0kB muxing overhead: unknown\r\nConversion failed!\r\n\u001B[31m\u001B[1m[!] ERROR: Subprocess 16636 exited with code 1\u001B[0m\r\n\u001B[31m\u001B[1m[!] ERROR: Subprocess execution ran into an error\u001B[0m\r\n\u001B[33m\u001B[1m[!] WARNING: Terminating all processes\u001B[0m\r\nCleaning up cache directory: C:\\Users\\DJBie\\AppData\\Local\\Temp\\video2x\\tmphux65sx6\r\nCleaning up cache directory: C:\\Users\\DJBie\\AppData\\Local\\Temp\\video2x\\tmp6t_dpbcm\r\nCleaning up cache directory: C:\\Users\\DJBie\\AppData\\Local\\Temp\\video2x\r\nTraceback (most recent call last):\r\n  File \"video2x_gui.py\", line 105, in run\r\n  File \"upscaler.py\", line 1022, in run\r\n  File \"upscaler.py\", line 817, in run\r\n  File \"upscaler.py\", line 489, in _wait\r\n  File \"upscaler.py\", line 467, in _wait\r\nsubprocess.CalledProcessError: Command '['C:\\\\Users\\\\DJBie\\\\Desktop\\\\video2x-4.8.1-win32-full\\\\dependencies\\\\ffmpeg\\\\bin\\\\ffmpeg', '-hwaccel', 'auto', '-y', '-i', 'D:\\\\Ripped Movies\\\\NINJAGO.mkv', '-pix_fmt', 'rgb24', 'C:\\\\Users\\\\DJBie\\\\AppData\\\\Local\\\\Temp\\\\video2x\\\\tmphux65sx6\\\\extracted_%0d.png']' returned non-zero exit status 1.\r\n","closed_by":null,"reactions":{"url":"https://api.github.com/repos/k4yt3x/video2x/issues/744/reactions","total_count":0,"+1":0,"-1":0,"laugh":0,"hooray":0,"confused":0,"heart":0,"rocket":0,"eyes":0},"timeline_url":"https://api.github.com/repos/k4yt3x/video2x/issues/744/timeline","performed_via_github_app":null,"state_reason":null}